<?xml version="1.0" encoding="UTF-8" standalone="no"?>
<!-- Created with Inkscape (http://www.inkscape.org/) -->

<svg
   xmlns:dc="http://purl.org/dc/elements/1.1/"
   xmlns:cc="http://creativecommons.org/ns#"
   xmlns:rdf="http://www.w3.org/1999/02/22-rdf-syntax-ns#"
   xmlns:svg="http://www.w3.org/2000/svg"
   xmlns="http://www.w3.org/2000/svg"
   xmlns:sodipodi="http://sodipodi.sourceforge.net/DTD/sodipodi-0.dtd"
   xmlns:inkscape="http://www.inkscape.org/namespaces/inkscape"
   width="67.326767"
   height="49.570312"
   id="svg3591"
   version="1.1"
   inkscape:version="0.48.5 r10040"
   sodipodi:docname="coffee.svg">
  <defs
     id="defs3593" />
  <sodipodi:namedview
     id="base"
     pagecolor="#ffffff"
     bordercolor="#666666"
     borderopacity="1.0"
     inkscape:pageopacity="0.0"
     inkscape:pageshadow="2"
     inkscape:zoom="0.35"
     inkscape:cx="114.3744"
     inkscape:cy="319.06697"
     inkscape:document-units="px"
     inkscape:current-layer="layer1"
     showgrid="false"
     inkscape:window-width="597"
     inkscape:window-height="581"
     inkscape:window-x="20"
     inkscape:window-y="20"
     inkscape:window-maximized="0"
     fit-margin-top="0"
     fit-margin-left="0"
     fit-margin-right="0"
     fit-margin-bottom="0" />
  <metadata
     id="metadata3596">
    <rdf:RDF>
      <cc:Work
         rdf:about="">
        <dc:format>image/svg+xml</dc:format>
        <dc:type
           rdf:resource="http://purl.org/dc/dcmitype/StillImage" />
        <dc:title />
      </cc:Work>
    </rdf:RDF>
  </metadata>
  <g
     inkscape:label="Layer 1"
     inkscape:groupmode="layer"
     id="layer1"
     transform="translate(-260.6256,-344.71598)">
    <g
       transform="matrix(1.25,0,0,-1.25,-634.79374,531.99123)"
       id="g3551">
      <g
         transform="translate(747.39897,112.41395)"
         id="g358">
        <path
           inkscape:connector-curvature="0"
           id="path360"
           style="fill:none;stroke:lime;stroke-width:1;stroke-linecap:butt;stroke-linejoin:miter;stroke-miterlimit:10;stroke-opacity:1;stroke-dasharray:none"
           d="m 0,0 c 7.508,8.126 11.977,16.853 12.361,33.5 0.03,1.313 -1.027,2.396 -2.34,2.396 l -37.255,0 c -1.313,0 -2.372,-1.083 -2.342,-2.395 C -29.19,16.853 -24.722,8.126 -17.214,0 c 0.441,-0.478 1.067,-0.746 1.716,-0.746 l 13.782,0 c 0.65,0 1.276,0.268 1.716,0.746 z" />
      </g>
      <g
         transform="translate(760.62766,145.04423)"
         id="g362">
        <path
           inkscape:connector-curvature="0"
           id="path364"
           style="fill:none;stroke:lime;stroke-width:1;stroke-linecap:butt;stroke-linejoin:miter;stroke-miterlimit:10;stroke-opacity:1;stroke-dasharray:none"
           d="M 0,0 4.668,0 C 7.205,0 8.929,-2.049 8.516,-4.554 7.484,-10.795 3.809,-14.818 -4.149,-18.32" />
      </g>
    </g>
  </g>
</svg>
